<svg width="145" height="67" viewBox="0 0 145 67" fill="none" xmlns="http://www.w3.org/2000/svg">
<path d="M1.62569 67L0 61.3927L0.17781 61.2984C0.465692 61.9424 0.79591 62.5707 1.16846 63.1832C1.54102 63.7958 1.96437 64.3377 2.43853 64.8089C2.92963 65.2801 3.47152 65.6649 4.06422 65.9634C4.67385 66.2461 5.33429 66.3874 6.04553 66.3874C7.3156 66.3874 8.28085 66.1047 8.94129 65.5393C9.61866 64.9581 9.95734 64.1335 9.95734 63.0654C9.95734 62.6257 9.8896 62.2173 9.75413 61.8403C9.63559 61.4476 9.41544 61.0628 9.09369 60.6859C8.78888 60.3089 8.36552 59.9162 7.82363 59.5079C7.29866 59.0995 6.63823 58.6518 5.84232 58.1649C4.9956 57.6466 4.29283 57.1754 3.734 56.7513C3.17517 56.3272 2.72641 55.9188 2.38773 55.5262C2.04904 55.1178 1.8035 54.7173 1.65109 54.3246C1.51562 53.9319 1.44788 53.5079 1.44788 53.0524C1.44788 52.4869 1.56642 51.9686 1.8035 51.4974C2.04058 51.0262 2.3708 50.6257 2.79415 50.2958C3.23444 49.9503 3.75094 49.6832 4.34364 49.4948C4.95327 49.3063 5.61371 49.212 6.32494 49.212C6.68056 49.212 6.98538 49.2356 7.23939 49.2827C7.51034 49.3141 7.74742 49.3613 7.95063 49.4241C8.17078 49.4712 8.36552 49.5183 8.53486 49.5654C8.70421 49.5969 8.87355 49.6126 9.04289 49.6126C9.33077 49.6126 9.54245 49.5497 9.67793 49.4241C9.8134 49.2827 9.89807 49.1414 9.93194 49H10.0589L11.4814 53.6178L11.329 53.712C11.075 53.2251 10.7871 52.7382 10.4654 52.2513C10.1436 51.7644 9.788 51.3325 9.39851 50.9555C9.00902 50.5628 8.5772 50.2487 8.10304 50.0131C7.62888 49.7618 7.09545 49.6361 6.50275 49.6361C5.79151 49.6361 5.23268 49.8246 4.82626 50.2016C4.41984 50.5785 4.21663 51.0969 4.21663 51.7565C4.21663 52.0864 4.26743 52.3927 4.36904 52.6754C4.48758 52.9424 4.69079 53.2251 4.97867 53.5236C5.28349 53.822 5.69838 54.1597 6.22334 54.5366C6.76523 54.8979 7.46801 55.3298 8.33165 55.8325C9.17836 56.3194 9.88114 56.7906 10.44 57.2461C10.9988 57.6859 11.4391 58.1335 11.7608 58.589C12.0995 59.0445 12.3366 59.5157 12.4721 60.0026C12.6245 60.4895 12.7007 61.0157 12.7007 61.5812C12.7007 63.2304 12.1165 64.5183 10.948 65.445C9.77953 66.356 8.14538 66.8115 6.04553 66.8115C5.52057 66.8115 5.08028 66.788 4.72466 66.7408C4.38597 66.6937 4.09809 66.6387 3.86101 66.5759C3.62393 66.5288 3.41225 66.4817 3.22598 66.4346C3.05663 66.3874 2.87036 66.3639 2.66714 66.3639C2.36233 66.3639 2.14218 66.4267 2.00671 66.5524C1.87123 66.6937 1.78656 66.8429 1.7527 67H1.62569Z" fill="black"/>
<path d="M33.7517 61.6518L31.9736 66.5288H20.0603V66.411C20.3144 66.2853 20.5938 66.0733 20.8986 65.7749C21.2203 65.4764 21.3812 65.0759 21.3812 64.5733V51.4267C21.3812 50.9241 21.2203 50.5236 20.8986 50.2251C20.5938 49.9267 20.3144 49.7147 20.0603 49.589V49.4712H30.3225L32.0752 53.5236L31.9228 53.6178C31.7365 53.3351 31.4825 52.9817 31.1607 52.5576C30.839 52.1335 30.458 51.7251 30.0177 51.3325C29.5943 50.9398 29.1202 50.6099 28.5952 50.3429C28.0702 50.0602 27.5283 49.9188 26.9695 49.9188H24.6326V54.7487H27.4775C27.7146 54.7487 27.9263 54.6937 28.1126 54.5838C28.3158 54.4581 28.4936 54.3168 28.646 54.1597C28.8153 53.9869 28.9508 53.8063 29.0524 53.6178C29.171 53.4293 29.2556 53.2723 29.3064 53.1466H29.4589V56.7984H29.3064C29.2556 56.6728 29.171 56.5157 29.0524 56.3272C28.9508 56.1387 28.8153 55.966 28.646 55.8089C28.4936 55.6361 28.3158 55.4948 28.1126 55.3848C27.9263 55.2592 27.7146 55.1963 27.4775 55.1963H24.6326V66.0812H28.2396C28.8492 66.0812 29.4335 65.9241 29.9923 65.6099C30.5511 65.2801 31.0591 64.8796 31.5164 64.4084C31.9905 63.9372 32.3969 63.4424 32.7356 62.9241C33.0912 62.4058 33.3707 61.9581 33.5739 61.5812L33.7517 61.6518Z" fill="black"/>
<path d="M53.946 64.8089C54.1153 65.1702 54.3101 65.4764 54.5302 65.7277C54.7673 65.9633 55.0806 66.1911 55.4701 66.411V66.5288H49.1451V66.411C49.6362 66.2853 50.0003 66.0576 50.2374 65.7277C50.4745 65.3822 50.4745 64.9581 50.2374 64.4555L47.9513 59.1544H43.1504L41.2199 64.0785C41.1013 64.377 41.0759 64.6597 41.1437 64.9267C41.2114 65.178 41.3215 65.4058 41.4739 65.6099C41.6263 65.7984 41.8041 65.9633 42.0073 66.1047C42.2275 66.2461 42.4138 66.3403 42.5662 66.3874V66.5288H38.6289V66.411C39.12 66.2225 39.518 65.9476 39.8228 65.5864C40.1446 65.2094 40.3986 64.7853 40.5849 64.3141L46.5288 49.2356H47.113L53.946 64.8089ZM43.3282 58.7068H47.7734L45.4619 53.3351L43.3282 58.7068Z" fill="black"/>
<path d="M62.3112 67L60.6855 61.3927L60.8633 61.2984C61.1512 61.9424 61.4814 62.5707 61.8539 63.1832C62.2265 63.7958 62.6499 64.3377 63.124 64.8089C63.6151 65.2801 64.157 65.6649 64.7497 65.9634C65.3593 66.2461 66.0198 66.3874 66.731 66.3874C68.0011 66.3874 68.9663 66.1047 69.6268 65.5393C70.3041 64.9581 70.6428 64.1335 70.6428 63.0654C70.6428 62.6257 70.5751 62.2173 70.4396 61.8403C70.3211 61.4476 70.1009 61.0628 69.7792 60.6859C69.4744 60.3089 69.051 59.9162 68.5091 59.5079C67.9841 59.0995 67.3237 58.6518 66.5278 58.1649C65.6811 57.6466 64.9783 57.1754 64.4195 56.7513C63.8607 56.3272 63.4119 55.9188 63.0732 55.5262C62.7345 55.1178 62.489 54.7173 62.3366 54.3246C62.2011 53.9319 62.1334 53.5079 62.1334 53.0524C62.1334 52.4869 62.2519 51.9686 62.489 51.4974C62.7261 51.0262 63.0563 50.6257 63.4796 50.2958C63.9199 49.9503 64.4364 49.6832 65.0291 49.4948C65.6387 49.3063 66.2992 49.212 67.0104 49.212C67.366 49.212 67.6709 49.2356 67.9249 49.2827C68.1958 49.3141 68.4329 49.3613 68.6361 49.4241C68.8563 49.4712 69.051 49.5183 69.2203 49.5654C69.3897 49.5969 69.559 49.6126 69.7284 49.6126C70.0163 49.6126 70.2279 49.5497 70.3634 49.4241C70.4989 49.2827 70.5835 49.1414 70.6174 49H70.7444L72.1669 53.6178L72.0145 53.712C71.7605 53.2251 71.4726 52.7382 71.1508 52.2513C70.8291 51.7644 70.4735 51.3325 70.084 50.9555C69.6945 50.5628 69.2627 50.2487 68.7885 50.0131C68.3144 49.7618 67.7809 49.6361 67.1882 49.6361C66.477 49.6361 65.9182 49.8246 65.5117 50.2016C65.1053 50.5785 64.9021 51.0969 64.9021 51.7565C64.9021 52.0864 64.9529 52.3927 65.0545 52.6754C65.1731 52.9424 65.3763 53.2251 65.6642 53.5236C65.969 53.822 66.3839 54.1597 66.9088 54.5366C67.4507 54.8979 68.1535 55.3298 69.0171 55.8325C69.8638 56.3194 70.5666 56.7906 71.1255 57.2461C71.6843 57.6859 72.1246 58.1335 72.4463 58.589C72.785 59.0445 73.0221 59.5157 73.1576 60.0026C73.31 60.4895 73.3862 61.0157 73.3862 61.5812C73.3862 63.2304 72.8019 64.5183 71.6335 65.445C70.465 66.356 68.8309 66.8115 66.731 66.8115C66.206 66.8115 65.7658 66.788 65.4101 66.7408C65.0714 66.6937 64.7836 66.6387 64.5465 66.5759C64.3094 66.5288 64.0977 66.4817 63.9115 66.4346C63.7421 66.3874 63.5558 66.3639 63.3526 66.3639C63.0478 66.3639 62.8277 66.4267 62.6922 66.5524C62.5567 66.6937 62.472 66.8429 62.4382 67H62.3112Z" fill="black"/>
<path d="M89.8141 66.8115C88.4932 66.8115 87.2655 66.5916 86.1309 66.1518C84.9963 65.6963 84.0141 65.0838 83.1844 64.3141C82.3546 63.5288 81.7026 62.6021 81.2284 61.534C80.7543 60.4503 80.5172 59.288 80.5172 58.0471C80.5172 56.8063 80.7543 55.6518 81.2284 54.5838C81.7195 53.5 82.38 52.5654 83.2098 51.7801C84.0565 50.9791 85.0387 50.3508 86.1563 49.8953C87.2909 49.4398 88.5102 49.212 89.8141 49.212C91.1689 49.212 92.4135 49.4398 93.5481 49.8953C94.6827 50.3351 95.6649 50.9476 96.4947 51.733C97.3245 52.5026 97.968 53.4215 98.4252 54.4895C98.8824 55.5576 99.111 56.7199 99.111 57.9764C99.111 59.1859 98.8824 60.3325 98.4252 61.4162C97.968 62.4843 97.3245 63.4188 96.4947 64.2199C95.6649 65.0209 94.6827 65.6571 93.5481 66.1283C92.4135 66.5838 91.1689 66.8115 89.8141 66.8115ZM91.3382 66.1283C92.1002 66.1283 92.7776 65.9869 93.3703 65.7042C93.963 65.4215 94.4626 65.0288 94.869 64.5262C95.2923 64.0236 95.6141 63.4267 95.8342 62.7356C96.0544 62.0445 96.1645 61.2827 96.1645 60.4503C96.1645 59.2565 95.9613 58.0393 95.5548 56.7984C95.1484 55.5419 94.5896 54.4031 93.8783 53.3822C93.1671 52.3613 92.3373 51.5288 91.389 50.8848C90.4407 50.2251 89.4246 49.8953 88.3408 49.8953C87.5788 49.8953 86.893 50.0366 86.2833 50.3194C85.6906 50.6021 85.1826 51.0026 84.7592 51.5209C84.3528 52.0236 84.0395 52.6204 83.8194 53.3115C83.5992 54.0026 83.4892 54.7565 83.4892 55.5733C83.4892 56.2644 83.5738 57.0105 83.7432 57.8115C83.9295 58.5969 84.1835 59.3822 84.5052 60.1675C84.8439 60.9529 85.2503 61.7068 85.7245 62.4293C86.1987 63.1361 86.7236 63.7644 87.2994 64.3141C87.8921 64.8639 88.5271 65.3037 89.2045 65.6335C89.8819 65.9634 90.5931 66.1283 91.3382 66.1283Z" fill="black"/>
<path d="M118.25 49.4712H122.212V49.589C122.06 49.6518 121.891 49.7539 121.704 49.8953C121.535 50.0366 121.366 50.2173 121.196 50.4372C121.044 50.6414 120.917 50.877 120.815 51.144C120.714 51.3953 120.663 51.6702 120.663 51.9686V66.7644H120.206L108.445 51.7565V64.0314C108.445 64.3298 108.513 64.6126 108.648 64.8796C108.784 65.1309 108.944 65.3665 109.131 65.5864C109.317 65.7906 109.512 65.9633 109.715 66.1047C109.935 66.2461 110.121 66.3482 110.274 66.411V66.5288H106.311V66.411C106.464 66.3482 106.624 66.2461 106.794 66.1047C106.98 65.9633 107.149 65.7906 107.302 65.5864C107.471 65.3665 107.607 65.1309 107.708 64.8796C107.81 64.6126 107.861 64.3298 107.861 64.0314V51.0026C107.556 50.5942 107.31 50.288 107.124 50.0838C106.938 49.8639 106.751 49.699 106.565 49.589V49.4712H110.502L120.053 61.7932V51.9686C120.053 51.6702 119.986 51.3953 119.85 51.144C119.732 50.877 119.571 50.6414 119.367 50.4372C119.181 50.2173 118.986 50.0366 118.783 49.8953C118.58 49.7539 118.402 49.6518 118.25 49.589V49.4712Z" fill="black"/>
<path d="M143.476 64.8089C143.645 65.1702 143.84 65.4764 144.06 65.7277C144.297 65.9633 144.611 66.1911 145 66.411V66.5288H138.675V66.411C139.166 66.2853 139.53 66.0576 139.767 65.7277C140.004 65.3822 140.004 64.9581 139.767 64.4555L137.481 59.1544H132.68L130.75 64.0785C130.631 64.377 130.606 64.6597 130.674 64.9267C130.741 65.178 130.851 65.4058 131.004 65.6099C131.156 65.7984 131.334 65.9633 131.537 66.1047C131.757 66.2461 131.944 66.3403 132.096 66.3874V66.5288H128.159V66.411C128.65 66.2225 129.048 65.9476 129.353 65.5864C129.674 65.2094 129.929 64.7853 130.115 64.3141L136.059 49.2356H136.643L143.476 64.8089ZM132.858 58.7068H137.303L134.992 53.3351L132.858 58.7068Z" fill="black"/>
<path d="M75.6504 6.98991C75.5797 7.80162 75.5444 8.54274 75.4738 9.28387C80.7353 5.7547 86.2088 6.38995 86.3853 6.07233C85.5025 5.29591 84.6197 4.51949 83.7722 3.81366C80.5588 3.81366 77.8044 4.73124 75.6504 6.98991Z" fill="#DBA765"/>
<path d="M73.3904 16.9069C71.201 22.2712 72.0132 15.8834 89.0691 14.7188C89.8106 14.6835 90.5522 14.7541 91.2938 14.7894C91.0819 14.1541 90.87 13.4836 90.6581 12.8483C82.501 10.872 74.2732 14.7894 73.3904 16.9069Z" fill="#DBA765"/>
<path d="M69.0116 0.21391C69.7532 2.89608 71.8719 4.55478 74.0613 6.03703C74.0613 3.70778 72.7194 -0.103715 71.6954 0.00215963C70.5301 0.108035 71.9779 -0.103715 69.0116 0.21391Z" fill="#DBA765"/>
<path d="M90.7288 27.0356C90.9053 26.4709 91.1172 25.8357 91.3291 25.2357C88.3275 24.1064 76.18 25.6592 70.2122 32.7175C69.6826 33.3528 69.2235 34.0233 68.7291 34.6939C68.4466 35.1174 69.2235 37.5525 69.3647 37.6936C69.5766 37.9054 69.7532 36.4937 71.5188 34.588C76.0741 29.5413 84.9728 26.7885 90.7288 27.0356Z" fill="#DBA765"/>
<path d="M90.0578 28.5531C86.2088 28.059 73.92 31.8352 71.0244 37.6584C70.7419 38.223 70.6007 38.823 70.3888 39.4582C71.2716 40.1288 70.3888 39.9876 73.4963 39.9876C74.3085 38.3995 75.4032 36.282 79.6407 34.3056C82.9953 32.7175 85.2553 32.9999 87.0916 33.1057C88.2922 31.7294 89.2809 30.2118 90.0578 28.5531Z" fill="#DBA765"/>
<path d="M75.1207 39.7053C75.2972 39.8817 80.8766 39.0347 85.6438 34.588C85.6085 34.3056 79.2875 34.4115 75.1207 39.7053Z" fill="#DBA765"/>
<path d="M65.9394 0.919743C66.9635 5.15474 70.1416 9.07212 73.5669 11.4367C73.7435 10.1662 73.92 9.00153 74.0966 7.83691C70.9891 6.14291 68.6938 3.88424 67.5991 0.460951C67.0694 0.602118 66.5044 0.778576 65.9394 0.919743Z" fill="#DBA765"/>
<path d="M75.2972 11.2249C75.0147 11.4719 75.0854 11.6131 74.3791 14.0835C74.8382 13.8365 76.7804 12.1778 81.0178 11.2955C84.9375 10.4838 87.5153 10.6602 89.8813 11.0837C89.2809 9.84853 88.5747 8.75449 87.7625 7.73103C83.4544 7.73103 78.546 8.36628 75.2972 11.2249Z" fill="#DBA765"/>
<path d="M81.4416 2.40199C80.241 1.48441 75.4385 0.0374513 74.026 0.108035C74.9088 1.66087 75.3325 3.35487 75.5797 5.11945C77.2747 3.67249 79.2169 2.7902 81.4416 2.40199Z" fill="#DBA765"/>
<path d="M63.0438 2.08437C64.1385 8.50745 68.1641 13.9777 72.0485 16.0952C72.4016 15.0011 72.7547 13.9424 73.0726 12.9895C68.9057 10.0956 65.8688 6.42524 64.5976 1.41383C64.1032 1.62558 63.6088 1.83733 63.0438 2.08437Z" fill="#DBA765"/>
<path d="M91.9647 21.2124C88.9278 20.3654 79.9585 20.4007 72.0132 25.8709C71.3422 26.3297 68.9763 28.2355 68.8704 28.9413C68.3054 32.294 68.4113 31.9058 68.376 32.6117C68.8351 32.3999 71.3069 27.2473 81.4063 24.424C84.5138 23.5417 88.5041 22.9064 91.6822 23.6829C91.7528 22.8359 91.8587 22.0242 91.9647 21.2124Z" fill="#DBA765"/>
<path d="M56.3698 32.5058C61.1723 38.5054 68.2701 39.8464 68.8704 39.7406C67.6344 37.4466 68.0935 38.4348 67.1754 35.9291C61.031 33.2116 54.3923 27.1062 52.0617 18.6009C51.6732 23.2594 53.121 28.4472 56.3698 32.5058Z" fill="#DBA765"/>
<path d="M91.7175 16.6245C88.9278 15.4246 76.1094 17.5068 71.6601 21.4595C71.3776 21.7065 71.5541 21.3536 70.0357 25.1651C69.1529 27.3532 71.0597 22.9064 80.2763 20.4007C84.1253 19.342 88.0097 19.0597 92 19.6596C91.8941 18.6009 91.8234 17.6127 91.7175 16.6245Z" fill="#DBA765"/>
<path d="M66.681 33.988C67.246 34.3057 66.3985 33.8469 67.1048 29.753C60.7132 27.212 54.357 20.0478 54.0392 11.2249C51.1435 16.9422 55.6988 28.059 66.681 33.988Z" fill="#DBA765"/>
<path d="M60.5366 3.60191C60.3954 6.14291 63.1498 15.6717 70.636 19.6596C70.9538 18.9185 71.2363 18.2127 71.4835 17.5421C67.3873 15.354 63.1851 10.2367 61.7373 2.82549C61.3135 3.07253 60.9251 3.35487 60.5366 3.60191Z" fill="#DBA765"/>
<path d="M58.0648 5.64883C58.877 10.0956 59.0182 19.3067 68.7644 24.1417C69.1882 23.0829 69.6119 22.0594 70.0357 21.036C64.1738 18.3891 60.2895 11.4367 59.1595 4.66066C58.771 5.01358 58.4179 5.3312 58.0648 5.64883Z" fill="#DBA765"/>
<path d="M55.5576 8.61332C55.0985 9.21328 54.922 22.5535 67.4226 28.2355C67.7051 27.3179 67.9523 26.4709 68.2348 25.5886C60.3601 21.7065 57.6763 15.4952 56.7935 7.06049C56.7229 7.09578 56.8642 6.88403 55.5576 8.61332Z" fill="#DBA765"/>
<path d="M14 29.9139V23.1083H15.0053V29.9139H14ZM14.6906 29.9139V28.8931H18.1175V29.9139H14.6906ZM14.6906 26.9292V25.9472H17.8203V26.9292H14.6906ZM14.6906 24.1292V23.1083H18.0738V24.1292H14.6906Z" fill="black"/>
<path d="M23.3302 30.0111C22.8465 30.0111 22.4356 29.9139 22.0975 29.7194C21.7595 29.525 21.4565 29.2398 21.1884 28.8639L21.8702 28.1056C22.0393 28.3778 22.2403 28.5917 22.4735 28.7472C22.7066 28.8963 23.0038 28.9708 23.3652 28.9708C23.7032 28.9708 23.9713 28.8931 24.1694 28.7375C24.3734 28.5819 24.4754 28.3681 24.4754 28.0958C24.4754 27.869 24.423 27.6843 24.318 27.5417C24.2131 27.3991 24.0733 27.2824 23.8984 27.1917C23.7294 27.0944 23.54 27.0102 23.3302 26.9389C23.1262 26.8611 22.9193 26.7768 22.7095 26.6861C22.5055 26.5889 22.3161 26.469 22.1413 26.3264C21.9722 26.1838 21.8353 25.9991 21.7304 25.7722C21.6255 25.5454 21.573 25.2569 21.573 24.9069C21.573 24.5051 21.6604 24.1648 21.8353 23.8861C22.0159 23.6009 22.2578 23.3838 22.5609 23.2347C22.8639 23.0856 23.202 23.0111 23.575 23.0111C23.9771 23.0111 24.3355 23.0986 24.6502 23.2736C24.9708 23.4486 25.2301 23.6722 25.4283 23.9444L24.7464 24.7028C24.5716 24.4824 24.388 24.3204 24.1957 24.2167C24.0092 24.1065 23.7935 24.0514 23.5487 24.0514C23.2457 24.0514 23.0067 24.1194 22.8319 24.2556C22.6629 24.3917 22.5784 24.5829 22.5784 24.8292C22.5784 25.0366 22.6308 25.2051 22.7357 25.3347C22.8406 25.4579 22.9776 25.5648 23.1466 25.6556C23.3214 25.7398 23.5109 25.8208 23.7148 25.8986C23.9247 25.9764 24.1315 26.0639 24.3355 26.1611C24.5453 26.2583 24.7348 26.3847 24.9038 26.5403C25.0786 26.6893 25.2185 26.8838 25.3234 27.1236C25.4283 27.3634 25.4808 27.6648 25.4808 28.0278C25.4808 28.637 25.2855 29.1199 24.895 29.4764C24.5104 29.8329 23.9888 30.0111 23.3302 30.0111Z" fill="black"/>
<path d="M30.3798 29.9139V23.3028H31.3851V29.9139H30.3798ZM28.3866 24.1292V23.1083H33.3783V24.1292H28.3866Z" fill="black"/>
<path d="M37.567 29.9139V28.8931H39.1756C39.5952 28.8931 39.9624 28.7926 40.2771 28.5917C40.5976 28.3907 40.8453 28.112 41.0202 27.7556C41.2008 27.3926 41.2912 26.9745 41.2912 26.5014C41.2912 26.0347 41.2008 25.6231 41.0202 25.2667C40.8395 24.9102 40.5889 24.6315 40.2684 24.4306C39.9536 24.2296 39.5894 24.1292 39.1756 24.1292H37.567V23.1083H39.2018C39.6447 23.1083 40.0556 23.1958 40.4345 23.3708C40.8133 23.5393 41.1426 23.7792 41.4223 24.0903C41.7079 24.3949 41.9294 24.7546 42.0867 25.1694C42.2441 25.5778 42.3228 26.025 42.3228 26.5111C42.3228 26.9907 42.2441 27.438 42.0867 27.8528C41.9294 28.2676 41.7108 28.6306 41.4311 28.9417C41.1513 29.2463 40.822 29.4861 40.4432 29.6611C40.0644 29.8296 39.6564 29.9139 39.2193 29.9139H37.567ZM36.8764 29.9139V23.1083H37.8817V29.9139H36.8764Z" fill="black"/>
<path d="M103.222 29.9029V23.1068H104.209V29.9029H103.222ZM102 24.1068V23.1068H104.121V24.1068H102Z" fill="black"/>
<path d="M108.691 29.9029L110.481 27.1165L110.839 26.8738C110.781 27.0162 110.705 27.1424 110.612 27.2524C110.525 27.3625 110.408 27.4466 110.263 27.5049C110.117 27.5631 109.931 27.5922 109.704 27.5922C109.355 27.5922 109.035 27.5016 108.744 27.3204C108.453 27.1327 108.22 26.8738 108.045 26.5437C107.871 26.2136 107.783 25.8317 107.783 25.3981C107.783 24.9579 107.879 24.5566 108.071 24.1942C108.269 23.8317 108.531 23.5437 108.857 23.3301C109.183 23.1165 109.547 23.0097 109.948 23.0097C110.356 23.0097 110.722 23.1165 111.048 23.3301C111.374 23.5372 111.63 23.8188 111.817 24.1748C112.009 24.5243 112.105 24.9191 112.105 25.3592C112.105 25.9806 111.91 26.6084 111.52 27.2427L109.852 29.9029H108.691ZM109.948 26.7184C110.17 26.7184 110.367 26.6602 110.542 26.5437C110.717 26.4272 110.853 26.2686 110.952 26.068C111.051 25.8673 111.101 25.644 111.101 25.3981C111.101 25.1392 111.051 24.9094 110.952 24.7087C110.853 24.5081 110.717 24.3495 110.542 24.233C110.367 24.1165 110.17 24.0583 109.948 24.0583C109.727 24.0583 109.529 24.1165 109.355 24.233C109.18 24.3495 109.04 24.5081 108.936 24.7087C108.837 24.9094 108.787 25.1392 108.787 25.3981C108.787 25.6505 108.837 25.877 108.936 26.0777C109.04 26.2718 109.18 26.4272 109.355 26.5437C109.535 26.6602 109.733 26.7184 109.948 26.7184Z" fill="black"/>
<path d="M117.281 30C116.861 30 116.498 29.9159 116.189 29.7476C115.881 29.5793 115.639 29.3463 115.465 29.0485C115.296 28.7443 115.212 28.4013 115.212 28.0194C115.212 27.7152 115.264 27.4369 115.369 27.1845C115.479 26.9256 115.636 26.7055 115.84 26.5243C116.05 26.343 116.297 26.2136 116.582 26.1359L116.556 26.4466C116.323 26.3754 116.125 26.2589 115.962 26.0971C115.805 25.9353 115.686 25.7443 115.604 25.5243C115.523 25.3042 115.482 25.0744 115.482 24.835C115.482 24.4725 115.558 24.1553 115.709 23.8835C115.866 23.6052 116.082 23.3883 116.355 23.233C116.629 23.0777 116.937 23 117.281 23C117.63 23 117.938 23.0777 118.206 23.233C118.479 23.3883 118.692 23.6052 118.843 23.8835C119 24.1553 119.079 24.4725 119.079 24.835C119.079 25.0744 119.038 25.3042 118.957 25.5243C118.875 25.7443 118.756 25.9353 118.599 26.0971C118.442 26.2589 118.244 26.3754 118.005 26.4466L117.979 26.1359C118.27 26.2136 118.517 26.343 118.721 26.5243C118.925 26.7055 119.079 26.9256 119.184 27.1845C119.294 27.4369 119.35 27.7152 119.35 28.0194C119.35 28.4013 119.265 28.7443 119.096 29.0485C118.928 29.3463 118.686 29.5793 118.372 29.7476C118.063 29.9159 117.7 30 117.281 30ZM117.281 28.9903C117.496 28.9903 117.685 28.9417 117.848 28.8447C118.017 28.7476 118.148 28.6149 118.241 28.4466C118.34 28.2783 118.389 28.0874 118.389 27.8738C118.389 27.6537 118.34 27.4628 118.241 27.301C118.148 27.1327 118.017 27 117.848 26.9029C117.685 26.8058 117.496 26.7573 117.281 26.7573C117.065 26.7573 116.873 26.8058 116.704 26.9029C116.541 27 116.41 27.1327 116.311 27.301C116.218 27.4628 116.172 27.6537 116.172 27.8738C116.172 28.0874 116.218 28.2783 116.311 28.4466C116.41 28.6149 116.541 28.7476 116.704 28.8447C116.873 28.9417 117.065 28.9903 117.281 28.9903ZM117.281 25.8835C117.537 25.8835 117.746 25.7929 117.909 25.6116C118.072 25.4304 118.154 25.1974 118.154 24.9126C118.154 24.6278 118.072 24.3981 117.909 24.2233C117.746 24.0421 117.537 23.9515 117.281 23.9515C117.03 23.9515 116.821 24.0421 116.652 24.2233C116.489 24.3981 116.408 24.6278 116.408 24.9126C116.408 25.1974 116.489 25.4304 116.652 25.6116C116.821 25.7929 117.03 25.8835 117.281 25.8835Z" fill="black"/>
<path d="M124.301 30C123.894 30 123.524 29.9191 123.193 29.7573C122.867 29.589 122.59 29.3463 122.363 29.0291L123.044 28.2718C123.167 28.479 123.338 28.644 123.559 28.767C123.781 28.89 124.022 28.9515 124.284 28.9515C124.534 28.9515 124.75 28.8997 124.93 28.7961C125.11 28.6926 125.25 28.5469 125.349 28.3592C125.454 28.1715 125.506 27.9547 125.506 27.7087C125.506 27.4498 125.454 27.2298 125.349 27.0485C125.25 26.8673 125.105 26.7282 124.913 26.6311C124.726 26.5275 124.499 26.4757 124.232 26.4757C124.127 26.4757 124.019 26.4854 123.909 26.5049C123.798 26.5178 123.699 26.5405 123.612 26.5728L124.057 25.932C124.179 25.8803 124.307 25.8382 124.441 25.8058C124.581 25.767 124.715 25.7476 124.843 25.7476C125.157 25.7476 125.439 25.8317 125.69 26C125.946 26.1683 126.146 26.4045 126.292 26.7087C126.443 27.0065 126.519 27.3592 126.519 27.767C126.519 28.2071 126.426 28.5955 126.239 28.932C126.053 29.2686 125.794 29.5307 125.463 29.7184C125.131 29.9061 124.744 30 124.301 30ZM123.612 26.5728V25.9126L125.244 23.7961L126.449 23.767L124.747 25.9417L123.612 26.5728ZM122.669 24.1068V23.1068H126.449V23.767L125.585 24.1068H122.669Z" fill="black"/>
</svg>