<svg xmlns="http://www.w3.org/2000/svg" xmlns:xlink="http://www.w3.org/1999/xlink" width="500" zoomAndPan="magnify" viewBox="0 0 375 374.999991" height="500" preserveAspectRatio="xMidYMid meet" version="1.0"><defs><g/></defs><g fill="#ffffff" fill-opacity="1"><g transform="translate(21.245882, 311.893072)"><g><path d="M 160.609375 -216.78125 C 161.953125 -216.78125 163.300781 -216.554688 164.65625 -216.109375 C 164.65625 -205.796875 158.878906 -198.507812 147.328125 -194.25 L 144.640625 -193.75 C 140.035156 -193.1875 136.78125 -192.847656 134.875 -192.734375 C 133.875 -192.398438 132.585938 -192.316406 131.015625 -192.484375 C 129.441406 -192.648438 127.875 -192.566406 126.3125 -192.234375 L 117.390625 -191.21875 L 112.015625 -190.21875 L 106.125 -190.375 L 104.4375 -186.84375 L 104.4375 -178.109375 L 104.109375 -175.421875 L 104.109375 -168.859375 C 103.878906 -167.734375 103.765625 -166.441406 103.765625 -164.984375 L 104.109375 -152.203125 L 103.765625 -150.015625 C 103.648438 -148.898438 103.648438 -146.992188 103.765625 -144.296875 L 103.765625 -70.46875 L 103.4375 -69.125 C 103.882812 -66.4375 103.992188 -64.023438 103.765625 -61.890625 L 103.765625 -25.5625 C 103.765625 -22.644531 104.269531 -18.722656 105.28125 -13.796875 C 105.613281 -9.753906 103.820312 -6.5 99.90625 -4.03125 L 95.859375 -2.515625 L 93.671875 -1.515625 L 91.328125 -0.671875 L 88.796875 0.671875 L 86.28125 0.671875 L 85.265625 1.015625 L 82.90625 1.015625 L 80.390625 1.84375 L 75.015625 1.84375 C 70.859375 1.84375 67.550781 0.273438 65.09375 -2.859375 C 65.988281 -6.441406 67.441406 -10.085938 69.453125 -13.796875 C 69.453125 -15.140625 69.734375 -16.484375 70.296875 -17.828125 L 70.296875 -31.953125 L 70.640625 -34.484375 L 70.640625 -42.546875 L 71.140625 -46.75 L 71.140625 -70.125 C 70.804688 -72.476562 70.640625 -75.03125 70.640625 -77.78125 C 70.640625 -80.53125 70.804688 -82.96875 71.140625 -85.09375 L 71.140625 -110.15625 C 71.140625 -118.113281 71.140625 -123.269531 71.140625 -125.625 L 71.140625 -131.015625 C 71.140625 -134.710938 71.140625 -137.597656 71.140625 -139.671875 C 71.140625 -141.742188 71.253906 -144.410156 71.484375 -147.671875 L 71.484375 -148.84375 C 70.921875 -151.082031 70.804688 -156.015625 71.140625 -163.640625 C 71.367188 -166.773438 71.085938 -170.703125 70.296875 -175.421875 C 70.296875 -177.097656 70.410156 -179 70.640625 -181.125 L 70.640625 -184.828125 L 70.296875 -189.546875 C 64.804688 -191.453125 58.53125 -191.617188 51.46875 -190.046875 C 39.351562 -188.816406 28.925781 -182.648438 20.1875 -171.546875 C 18.5 -170.316406 16.3125 -169.53125 13.625 -169.1875 L 11.265625 -170.703125 C 8.796875 -187.179688 14.679688 -201.363281 28.921875 -213.25 C 32.734375 -213.695312 37.050781 -213.140625 41.875 -211.578125 L 102.25 -211.578125 C 104.050781 -212.140625 106.015625 -212.304688 108.140625 -212.078125 L 117.5625 -212.078125 C 118.570312 -211.742188 119.859375 -211.578125 121.421875 -211.578125 L 131.1875 -212.078125 L 134.203125 -212.421875 C 136.109375 -212.191406 138.632812 -212.191406 141.78125 -212.421875 L 144.125 -212.421875 C 147.039062 -212.421875 150.351562 -213.203125 154.0625 -214.765625 L 155.234375 -214.765625 Z M 160.609375 -216.78125 "/></g></g><g transform="translate(166.053169, 311.893072)"><g><path d="M 10.59375 -208.046875 C 8.46875 -212.972656 10.035156 -215.832031 15.296875 -216.625 L 39.515625 -215.4375 L 40.703125 -215.953125 C 43.273438 -216.398438 46.640625 -216.625 50.796875 -216.625 L 53.8125 -215.953125 L 55.5 -214.265625 C 58.1875 -203.722656 58.691406 -191.671875 57.015625 -178.109375 L 57.015625 -136.234375 C 59.703125 -134.773438 62.335938 -133.765625 64.921875 -133.203125 L 104.265625 -133.203125 L 108.984375 -132.359375 C 111.109375 -132.359375 113.800781 -132.640625 117.0625 -133.203125 L 119.40625 -137.90625 L 119.40625 -190.046875 L 118.5625 -192.90625 L 117.890625 -196.09375 C 115.765625 -199.457031 113.550781 -201.5625 111.25 -202.40625 C 108.957031 -203.25 107.8125 -204.398438 107.8125 -205.859375 L 106.125 -207.703125 C 104.550781 -212.640625 105.863281 -215.273438 110.0625 -215.609375 C 114.269531 -215.941406 119.40625 -215.550781 125.46875 -214.4375 C 132.414062 -214.09375 138.1875 -214.875 142.78125 -216.78125 L 146.3125 -216.109375 L 149.6875 -214.265625 C 151.476562 -211.015625 152.375 -206.25 152.375 -199.96875 L 153.21875 -198.453125 C 152.65625 -194.753906 152.65625 -190.046875 153.21875 -184.328125 L 153.21875 -179.625 L 152.375 -177.265625 L 153.21875 -149.6875 L 152.375 -148 L 153.21875 -77.53125 L 153.546875 -64.40625 L 154.734375 -48.09375 L 155.5625 -35.484375 L 156.234375 -31.78125 L 159.09375 -27.40625 C 163.695312 -23.820312 169.585938 -23.597656 176.765625 -26.734375 C 180.578125 -26.515625 182.257812 -24.382812 181.8125 -20.34375 L 180.296875 -16.65625 L 177.265625 -11.4375 C 175.023438 -9.53125 172 -7.566406 168.1875 -5.546875 L 160.109375 -3.203125 L 154.0625 -2.359375 C 140.9375 -3.472656 131.570312 -8.570312 125.96875 -17.65625 C 122.15625 -29.539062 120.695312 -45.742188 121.59375 -66.265625 L 121.765625 -86.609375 L 121.765625 -98.5625 L 119.40625 -111 L 118.5625 -112.515625 C 106.125 -116.210938 92.671875 -117.554688 78.203125 -116.546875 L 60.375 -115.703125 L 57.015625 -112.515625 L 57.015625 -52.140625 L 57.859375 -43.21875 C 57.628906 -33.914062 57.960938 -24.050781 58.859375 -13.625 L 58.1875 -8.578125 C 50 -0.722656 38.0625 2.132812 22.375 0 C 21.363281 -0.5625 20.742188 -2.242188 20.515625 -5.046875 C 20.296875 -7.398438 21.191406 -10.648438 23.203125 -14.796875 L 24.046875 -20.515625 L 24.046875 -25.90625 C 24.609375 -27.582031 24.609375 -29.710938 24.046875 -32.296875 L 24.046875 -63.734375 C 24.835938 -66.992188 25.117188 -71.203125 24.890625 -76.359375 C 24.328125 -77.921875 24.046875 -81.054688 24.046875 -85.765625 C 25.171875 -88.578125 25.453125 -91.941406 24.890625 -95.859375 L 24.046875 -100.0625 C 24.609375 -104.320312 24.609375 -113.015625 24.046875 -126.140625 L 23.203125 -193.75 C 22.753906 -199.019531 18.832031 -203.28125 11.4375 -206.53125 Z M 10.59375 -208.046875 "/></g></g></g></svg>